<svg xmlns="http://www.w3.org/2000/svg" width="24.5" height="24.5" viewBox="0 0 24.5 24.5">
  <defs>
    <style>
      .cls-1 {
        fill: #545454;
        fill-rule: evenodd;
      }
    </style>
  </defs>
  <path id="paperplane" class="cls-1" d="M776.65,2533.62a0.776,0.776,0,0,0-.416-0.12,0.736,0.736,0,0,0-.425.13l-22.968,15.31a0.767,0.767,0,0,0,.14,1.35l5.991,2.4,2.816,4.92a0.756,0.756,0,0,0,.657.39h0.008a0.765,0.765,0,0,0,.656-0.37l1.591-2.65,7.422,2.96a0.707,0.707,0,0,0,.284.06,0.716,0.716,0,0,0,.375-0.1,0.753,0.753,0,0,0,.38-0.54l3.828-22.97A0.77,0.77,0,0,0,776.65,2533.62ZM754.9,2549.41l17.744-11.83-12.9,13.81a1.664,1.664,0,0,0-.2-0.13Zm5.4,2.52c0-.01,0-0.01,0-0.01l14.5-15.52-12.364,19.26Zm11.506,4.24-6.539-2.62a1.59,1.59,0,0,0-.478-0.09l10.07-15.61Z" transform="translate(-752.5 -2533.5)"/>
</svg>
