<svg xmlns="http://www.w3.org/2000/svg" width="10" height="19" viewBox="0 0 10 19">
  <defs>
    <style>
      .cls-1 {
        fill: #545454;
        fill-rule: evenodd;
      }
    </style>
  </defs>
  <path id="facebook_icon" data-name="facebook icon" class="cls-1" d="M586.813,2537.01a7.084,7.084,0,0,0-2.984.56,3.613,3.613,0,0,0-1.557,1.64,5.874,5.874,0,0,0-.416,2.55v1.2h-1.864v3.02h1.864V2556h3.985v-10.02h2.486l0.688-3.02h-3.174v-1.13a2.127,2.127,0,0,1,.387-1.49,1.984,1.984,0,0,1,1.362-.46,3.349,3.349,0,0,1,1.694.7l0.727-2.84A10.852,10.852,0,0,0,586.813,2537.01Z" transform="translate(-580 -2537)"/>
</svg>
