<svg xmlns="http://www.w3.org/2000/svg" width="13" height="26" viewBox="0 0 13 26">
  <defs>
    <style>
      .cls-1 {
        fill: #fff;
        fill-rule: evenodd;
      }
    </style>
  </defs>
  <path id="icon_" data-name="icon " class="cls-1" d="M309,660.367v-4.379h3.426c0-.83-0.026-1.549,0-2.264a6.565,6.565,0,0,1,1.423-3.981,3.875,3.875,0,0,1,2.678-1.561c1.616-.165,3.243-0.152,4.876-0.186a0.745,0.745,0,0,1,.568.338c0.033,1.358.032,2.717,0.032,4.176h-1.952a1.8,1.8,0,0,0-1.986,1.752,13.771,13.771,0,0,0-.018,1.675h3.812v4.519c-1.062,0-2.123.025-3.185-.013-0.581-.025-0.747.192-0.747,0.786,0.023,3.947,0,7.895-.025,11.83v0.934h-5.476v-0.821c0-3.972-.026-7.945,0-11.913,0.007-.708-0.171-0.954-0.856-0.9C310.736,660.418,309.89,660.367,309,660.367Z" transform="translate(-309 -648)"/>
</svg>
