<svg xmlns="http://www.w3.org/2000/svg" width="24" height="19" viewBox="0 0 24 19">
  <defs>
    <style>
      .cls-1 {
        fill: #fff;
        fill-rule: evenodd;
      }
    </style>
  </defs>
  <path class="cls-1" d="M517,654.283a8.872,8.872,0,0,1-2.748.76,5.151,5.151,0,0,0,2.064-2.621,8.165,8.165,0,0,1-3.09,1.066,0,0,0,0,0,0,0,5,5,0,0,0-3.58-1.491,4.888,4.888,0,0,0-4.951,4.824,4.651,4.651,0,0,0,.127,1.075h0a14.425,14.425,0,0,1-10.489-5,4.753,4.753,0,0,0,1.5,6.372,3.236,3.236,0,0,1-2.162-.544,4.664,4.664,0,0,0,3.819,4.714,3.99,3.99,0,0,1-2.062.152c0.159,1.42,2.2,3.276,4.426,3.276a8.251,8.251,0,0,1-6.857,2A15.152,15.152,0,0,0,500.744,671,13.565,13.565,0,0,0,514.6,656.911c0-.009,0-0.018,0-0.026s0-.043,0-0.061,0-.047,0-0.073A8.4,8.4,0,0,0,517,654.283Z" transform="translate(-493 -652)"/>
</svg>
