<svg xmlns="http://www.w3.org/2000/svg" width="25" height="29" viewBox="0 0 25 29">
  <defs>
    <style>
      .cls-1 {
        fill: #fff;
        fill-rule: evenodd;
      }
    </style>
  </defs>
  <path id="fa-android" class="cls-1" d="M916.75,3312.18a0.68,0.68,0,1,1,.693-0.68A0.681,0.681,0,0,1,916.75,3312.18Zm7.491,0a0.68,0.68,0,1,1,.674-0.68A0.685,0.685,0,0,1,924.241,3312.18Zm-14.413,3.21a1.8,1.8,0,0,0-1.828,1.78v7.5a1.82,1.82,0,0,0,3.639,0v-7.5A1.8,1.8,0,0,0,909.828,3315.39Zm18.814,0.33H912.349v11.61a1.927,1.927,0,0,0,1.952,1.92h1.313l0.018,3.96a1.82,1.82,0,0,0,3.639,0v-3.96h2.449v3.96a1.829,1.829,0,0,0,3.657,0v-3.96h1.331a1.923,1.923,0,0,0,1.934-1.92v-11.61Zm-4.117-7.06,1.26-2.29a0.254,0.254,0,0,0-.089-0.35,0.292,0.292,0,0,0-.355.11l-1.278,2.3a9.082,9.082,0,0,0-7.135,0l-1.278-2.3a0.292,0.292,0,0,0-.355-0.11,0.254,0.254,0,0,0-.089.35l1.26,2.29a7.256,7.256,0,0,0-4.188,6.43H928.7A7.272,7.272,0,0,0,924.525,3308.66Zm8.466,8.51a1.82,1.82,0,0,0-3.639,0v7.5a1.82,1.82,0,0,0,3.639,0v-7.5Z" transform="translate(-908 -3306)"/>
</svg>
