<svg xmlns="http://www.w3.org/2000/svg" width="21" height="24" viewBox="0 0 21 24">
  <defs>
    <style>
      .cls-1 {
        fill: #fff;
        fill-rule: evenodd;
      }
    </style>
  </defs>
  <path id="fa-apple" class="cls-1" d="M608,3325.52a4.594,4.594,0,0,1-2.381-1.82,5.328,5.328,0,0,1-1.04-3.21,4.972,4.972,0,0,1,.979-2.99,9.457,9.457,0,0,1,1.718-1.7,7.238,7.238,0,0,0-1.567-1.44,5.68,5.68,0,0,0-3.21-.94,8.767,8.767,0,0,0-2.608.49,7.892,7.892,0,0,1-2.155.49,9.786,9.786,0,0,1-2.08-.43,10.326,10.326,0,0,0-2.668-.44,5.3,5.3,0,0,0-4.28,2.08A8.3,8.3,0,0,0,587,3321a14.277,14.277,0,0,0,2.216,7.26c1.492,2.48,2.984,3.73,4.536,3.73a5.511,5.511,0,0,0,1.99-.49,6.2,6.2,0,0,1,2.14-.47,6.89,6.89,0,0,1,2.276.46,7.272,7.272,0,0,0,2.11.46c1.281,0,2.577-.94,3.873-2.83A13.985,13.985,0,0,0,608,3325.52Zm-5.667-16.92c0-.1-0.015-0.19-0.015-0.29-0.015-.08-0.045-0.18-0.076-0.31a6.062,6.062,0,0,0-3.767,2.13,6.4,6.4,0,0,0-1.176,3.71,8.474,8.474,0,0,0,1.567-.25,4.244,4.244,0,0,0,1.628-1.04,5.874,5.874,0,0,0,1.4-1.99A5.294,5.294,0,0,0,602.328,3308.6Z" transform="translate(-587 -3308)"/>
</svg>
