<svg xmlns="http://www.w3.org/2000/svg" width="20" height="16" viewBox="0 0 20 16">
  <defs>
    <style>
      .cls-1 {
        fill: #fff;
        fill-rule: evenodd;
      }
    </style>
  </defs>
  <path id="fa-check" class="cls-1" d="M790,2710.12a1.331,1.331,0,0,0-.361-0.91l-1.755-1.83a1.2,1.2,0,0,0-1.756,0l-8.466,8.85-3.794-3.98a1.2,1.2,0,0,0-1.755,0l-1.755,1.83a1.35,1.35,0,0,0,0,1.84l4.672,4.87,1.755,1.83a1.2,1.2,0,0,0,1.755,0l1.755-1.83,9.344-9.75A1.337,1.337,0,0,0,790,2710.12Z" transform="translate(-770 -2707)"/>
</svg>
