<svg xmlns="http://www.w3.org/2000/svg" width="20" height="21" viewBox="0 0 20 21">
  <defs>
    <style>
      .cls-1 {
        fill: #fff;
        fill-rule: evenodd;
      }
    </style>
  </defs>
  <path id="fa-dribbble" class="cls-1" d="M682.336,717.754a8.224,8.224,0,0,1-8.778-1.339s0.117,0.082.2,0.15c1.64-3.744,6.707-5.6,6.707-5.6s0.039-.014.052-0.014A39.273,39.273,0,0,1,682.336,717.754Zm-2.409-8.294c-0.105.041-.222,0.068-0.339,0.109a13.611,13.611,0,0,0-6.941,5.917h0a9.2,9.2,0,0,1-2.188-5.985,2.121,2.121,0,0,1,.013-0.287,30,30,0,0,0,8.764-1.271C679.484,708.449,679.718,708.954,679.927,709.46Zm-1.394-2.9a30.881,30.881,0,0,1-7.892,1.093,8.915,8.915,0,0,1,4.714-6.258A54.354,54.354,0,0,1,678.533,706.563Zm8.908,4.359a9.05,9.05,0,0,1-3.66,6.012,41.561,41.561,0,0,0-1.667-6.408A12.106,12.106,0,0,1,687.441,710.922ZM676.957,700.8a0.045,0.045,0,0,0-.026.014A0.025,0.025,0,0,1,676.957,700.8Zm7.684,1.981a9.287,9.287,0,0,1-4.454,3.239,44.15,44.15,0,0,0-3.2-5.22A8.155,8.155,0,0,1,684.641,702.778Zm2.9,6.627a19.1,19.1,0,0,0-5.951-.287c-0.066-.15-0.118-0.314-0.183-0.464-0.182-.437-0.377-0.875-0.573-1.3a11.218,11.218,0,0,0,4.767-3.553A9.252,9.252,0,0,1,687.545,709.405ZM689,709.5A10.014,10.014,0,1,0,679,720,10.26,10.26,0,0,0,689,709.5Z" transform="translate(-669 -699)"/>
</svg>
