<svg xmlns="http://www.w3.org/2000/svg" width="23" height="20" viewBox="0 0 23 20">
  <defs>
    <style>
      .cls-1 {
        fill: #fff;
        fill-rule: evenodd;
      }
    </style>
  </defs>
  <path id="fa-flickr" class="cls-1" d="M648.691,699.007H634.313A4.061,4.061,0,0,0,630,702.754v12.493A4.061,4.061,0,0,0,634.313,719h14.378A4.061,4.061,0,0,0,653,715.247V702.754A4.061,4.061,0,0,0,648.691,699.007ZM640.454,709a3.206,3.206,0,1,1-3.175-2.759A2.99,2.99,0,0,1,640.454,709Zm8.447,0a3.206,3.206,0,1,1-3.175-2.759A2.99,2.99,0,0,1,648.9,709Z" transform="translate(-630 -699)"/>
</svg>
