<svg xmlns="http://www.w3.org/2000/svg" width="23" height="20" viewBox="0 0 23 20">
  <defs>
    <style>
      .cls-1 {
        fill: #fff;
        fill-rule: evenodd;
      }
    </style>
  </defs>
  <path id="fa-twitter" class="cls-1" d="M614,701.377a8.953,8.953,0,0,1-2.716.781,4.986,4.986,0,0,0,2.074-2.781,8.944,8.944,0,0,1-2.993,1.219A4.569,4.569,0,0,0,606.923,699a4.888,4.888,0,0,0-4.716,5.047,6.084,6.084,0,0,0,.117,1.156,13.138,13.138,0,0,1-9.723-5.281,5.277,5.277,0,0,0-.642,2.547,5.142,5.142,0,0,0,2.1,4.2,4.515,4.515,0,0,1-2.132-.64V706.1a4.975,4.975,0,0,0,3.782,4.953,4.7,4.7,0,0,1-1.241.172,5.666,5.666,0,0,1-.891-0.078,4.777,4.777,0,0,0,4.409,3.5A9.215,9.215,0,0,1,591,716.735,12.7,12.7,0,0,0,598.236,719c8.673,0,13.417-7.687,13.417-14.358,0-.219,0-0.437-0.014-0.656A10.546,10.546,0,0,0,614,701.377Z" transform="translate(-591 -699)"/>
</svg>
